# Bolts | length 4 | barrel -X up +Y
mtllib electroburst.mtl
g bolts
v -0.029507 0.461037 0.186753
v -0.028075 0.456150 0.207296
v -0.028137 0.464722 0.186130
v -0.029507 0.453579 0.204806
v -0.028013 0.457489 0.186753
v -0.028075 0.435576 0.215388
v -0.027951 0.451089 0.202316
v -0.029507 0.435576 0.212276
v -0.027951 0.435576 0.208541
v -0.027951 0.420057 0.202316
v -0.029507 0.417573 0.204806
v -0.028013 0.413658 0.186753
v -0.029507 0.410116 0.186753
v -0.028075 0.414996 0.207296
v -0.028137 0.406424 0.186130
v -0.020854 0.456150 0.207296
v -0.024465 0.466316 0.186130
v -0.024465 0.457240 0.207918
v -0.020792 0.464722 0.186130
v -0.028075 0.456150 0.207296
v -0.028137 0.464722 0.186130
v -0.028013 0.413658 0.186753
v -0.027951 0.420057 0.202316
v -0.024465 0.421047 0.201071
v -0.024465 0.415139 0.186753
v -0.020916 0.413658 0.186753
v -0.020979 0.420057 0.202316
v -0.024465 0.450100 0.201071
v -0.027951 0.435576 0.208541
v -0.027951 0.451089 0.202316
v -0.024465 0.435576 0.207296
v -0.020979 0.435576 0.208541
v -0.020979 0.451089 0.202316
v -0.024465 0.421047 0.201071
v -0.027951 0.420057 0.202316
v -0.020979 0.420057 0.202316
v -0.020854 0.456150 0.207296
v -0.019422 0.461037 0.186753
v -0.020792 0.464722 0.186130
v -0.019422 0.453579 0.204806
v -0.020916 0.457489 0.186753
v -0.020854 0.435576 0.215388
v -0.020979 0.451089 0.202316
v -0.020854 0.414996 0.207296
v -0.020792 0.406424 0.186130
v -0.019422 0.410116 0.186753
v -0.019422 0.417573 0.204806
v -0.020916 0.413658 0.186753
v -0.019422 0.435576 0.212276
v -0.020979 0.435576 0.208541
v -0.020979 0.420057 0.202316
v -0.024465 0.450100 0.201071
v -0.020916 0.457489 0.186753
v -0.020979 0.451089 0.202316
v -0.028013 0.457489 0.186753
v -0.027951 0.451089 0.202316
v -0.024465 0.456013 0.186753
v -0.028075 0.414996 0.207296
v -0.028137 0.406424 0.186130
v -0.024465 0.404837 0.186130
v -0.024465 0.413913 0.207918
v -0.020854 0.414996 0.207296
v -0.020792 0.406424 0.186130
v -0.024465 0.435576 0.217256
v -0.020854 0.456150 0.207296
v -0.024465 0.457240 0.207918
v -0.028075 0.456150 0.207296
v -0.020854 0.435576 0.215388
v -0.028075 0.435576 0.215388
v -0.028075 0.414996 0.207296
v -0.024465 0.413913 0.207918
v -0.020854 0.414996 0.207296
v -0.068850 0.435576 0.156873
v -0.054096 0.465208 0.169323
v -0.055839 0.466963 0.156873
v -0.054096 0.405939 0.169323
v -0.055839 0.404183 0.156873
v -0.066360 0.435576 0.169323
v -0.024465 0.479961 0.156873
v 0.005167 0.465208 0.169323
v 0.006910 0.466963 0.156873
v -0.024465 0.477484 0.169323
v -0.054096 0.465208 0.169323
v -0.055839 0.466963 0.156873
v 0.005167 0.465208 0.169323
v 0.017430 0.435576 0.169323
v 0.019920 0.435576 0.156873
v 0.005167 0.405939 0.169323
v 0.006910 0.466963 0.156873
v 0.006910 0.404183 0.156873
v 0.005167 0.405939 0.169323
v -0.024465 0.391185 0.156873
v 0.006910 0.404183 0.156873
v -0.024465 0.393669 0.169323
v -0.054096 0.405939 0.169323
v -0.055839 0.404183 0.156873
vt 5.99697 -56.9949 
vt 6.00111 -56.9959 
vt 5.9969 -56.9941 
vt 6.00059 -56.9964 
vt 5.99705 -56.9956 
vt 6.00282 -57 
vt 6.00009 -56.9969 
vt 6.00209 -57 
vt 6.00138 -57 
vt 6.00009 -57.0031 
vt 6.00059 -57.0036 
vt 5.99705 -57.0044 
vt 5.99697 -57.0051 
vt 6.00111 -57.0041 
vt 5.9969 -57.0059 
vt 6.00073 -57.0011 
vt 6 -56.9969 
vt 6 -57.0013 
vt 6.00074 -56.9969 
vt 5.99927 -57.0011 
vt 5.99926 -56.9969 
vt 5.99929 -56.997 
vt 5.9993 -57.0001 
vt 6 -56.9999 
vt 6 -56.9971 
vt 6.00071 -56.997 
vt 6.0007 -57.0001 
vt 6 -56.9971 
vt 6.0007 -57 
vt 6.0007 -56.9969 
vt 6 -57 
vt 5.9993 -57 
vt 5.9993 -56.9969 
vt 6 -57.0029 
vt 6.0007 -57.0031 
vt 5.9993 -57.0031 
vt 5.99889 -56.9959 
vt 6.00303 -56.9949 
vt 6.0031 -56.9941 
vt 5.99941 -56.9964 
vt 6.00295 -56.9956 
vt 5.99718 -57 
vt 5.99991 -56.9969 
vt 5.99889 -57.0041 
vt 6.0031 -57.0059 
vt 6.00303 -57.0051 
vt 5.99941 -57.0036 
vt 6.00295 -57.0044 
vt 5.99791 -57 
vt 5.99862 -57 
vt 5.99991 -57.0031 
vt 6 -56.9999 
vt 5.99929 -56.997 
vt 5.9993 -57.0001 
vt 6.00071 -56.997 
vt 6.0007 -57.0001 
vt 6 -56.9971 
vt 6.00073 -57.0011 
vt 6.00074 -56.9969 
vt 6 -56.9969 
vt 6 -57.0013 
vt 5.99927 -57.0011 
vt 5.99926 -56.9969 
vt 6 -57 
vt 6.00073 -56.9959 
vt 6 -56.9957 
vt 5.99927 -56.9959 
vt 6.00073 -57 
vt 5.99927 -57 
vt 5.99927 -57.0041 
vt 6 -57.0043 
vt 6.00073 -57.0041 
vt 41.9988 -53 
vt 42.0012 -52.994 
vt 41.9988 -52.9937 
vt 42.0012 -53.006 
vt 41.9988 -53.0063 
vt 42.0012 -53 
vt 42 -52.9988 
vt 42.006 -53.0012 
vt 42.0063 -52.9988 
vt 42 -53.0012 
vt 41.994 -53.0012 
vt 41.9937 -52.9988 
vt 41.9988 -52.994 
vt 41.9988 -53 
vt 42.0012 -53 
vt 41.9988 -53.006 
vt 42.0012 -52.9937 
vt 42.0012 -53.0063 
vt 41.994 -53.0012 
vt 42 -52.9988 
vt 41.9937 -52.9988 
vt 42 -53.0012 
vt 42.006 -53.0012 
vt 42.0063 -52.9988 
vn -0.9921 0.1024 0.0394
vn -0.6693 0.5276 0.5197
vn -0.6299 0.7165 0.2992
vn -1.0000 0.0551 0.0551
vn -0.7244 -0.6299 -0.2677
vn -0.6693 0.0000 0.7402
vn -0.7402 -0.4724 -0.4724
vn -1.0000 0.0000 0.0709
vn -0.7480 0.0000 -0.6693
vn -0.7402 0.4724 -0.4724
vn -1.0000 -0.0551 0.0551
vn -0.7323 0.6299 -0.2677
vn -0.9921 -0.1024 0.0394
vn -0.6693 -0.5276 0.5197
vn -0.6299 -0.7165 0.2992
vn 0.6693 0.5276 0.5197
vn 0.0000 0.9291 0.3780
vn 0.0000 0.7087 0.7087
vn 0.6299 0.7165 0.2992
vn -0.6693 0.5276 0.5197
vn -0.6299 0.7165 0.2992
vn -0.7323 0.6299 -0.2677
vn -0.7402 0.4724 -0.4724
vn 0.0000 0.7087 -0.7087
vn 0.0000 0.9213 -0.3858
vn 0.7323 0.6299 -0.2677
vn 0.7402 0.4724 -0.4724
vn 0.0000 -0.7008 -0.7087
vn -0.7480 0.0000 -0.6693
vn -0.7402 -0.4724 -0.4724
vn 0.0000 0.0000 -1.0000
vn 0.7480 0.0000 -0.6693
vn 0.7402 -0.4724 -0.4724
vn 0.0000 0.7087 -0.7087
vn -0.7402 0.4724 -0.4724
vn 0.7402 0.4724 -0.4724
vn 0.6693 0.5276 0.5197
vn 0.9921 0.1024 0.0394
vn 0.6299 0.7165 0.2992
vn 1.0000 0.0551 0.0551
vn 0.7323 -0.6299 -0.2677
vn 0.6693 0.0000 0.7402
vn 0.7402 -0.4724 -0.4724
vn 0.6693 -0.5276 0.5197
vn 0.6299 -0.7165 0.2992
vn 0.9921 -0.1024 0.0394
vn 1.0000 -0.0551 0.0551
vn 0.7323 0.6299 -0.2677
vn 1.0000 0.0000 0.0709
vn 0.7480 0.0000 -0.6693
vn 0.7402 0.4724 -0.4724
vn 0.0000 -0.7008 -0.7087
vn 0.7323 -0.6299 -0.2677
vn 0.7402 -0.4724 -0.4724
vn -0.7244 -0.6299 -0.2677
vn -0.7402 -0.4724 -0.4724
vn 0.0000 -0.9213 -0.3858
vn -0.6693 -0.5276 0.5197
vn -0.6299 -0.7165 0.2992
vn 0.0000 -0.9291 0.3780
vn 0.0000 -0.7087 0.7087
vn 0.6693 -0.5276 0.5197
vn 0.6299 -0.7165 0.2992
vn 0.0000 0.0000 1.0000
vn 0.6693 0.5276 0.5197
vn 0.0000 0.7087 0.7087
vn -0.6693 0.5276 0.5197
vn 0.6693 0.0000 0.7402
vn -0.6693 0.0000 0.7402
vn -0.6693 -0.5276 0.5197
vn 0.0000 -0.7087 0.7087
vn 0.6693 -0.5276 0.5197
vn -0.9764 0.0000 0.1968
vn -0.6929 0.6929 0.1968
vn -0.6929 0.6929 0.1968
vn -0.6929 -0.6929 0.1968
vn -0.6929 -0.6929 0.1968
vn -0.9764 0.0000 0.1968
vn 0.0000 0.9764 0.1968
vn 0.6929 0.6929 0.1968
vn 0.6929 0.6929 0.1968
vn 0.0000 0.9764 0.1968
vn -0.6929 0.6929 0.1968
vn -0.6929 0.6929 0.1968
vn 0.6929 0.6929 0.1968
vn 0.9764 0.0000 0.1968
vn 0.9764 0.0000 0.1968
vn 0.6929 -0.6929 0.1968
vn 0.6929 0.6929 0.1968
vn 0.6929 -0.6929 0.1968
vn 0.6929 -0.6929 0.1968
vn 0.0000 -0.9764 0.1968
vn 0.6929 -0.6929 0.1968
vn 0.0000 -0.9764 0.1968
vn -0.6929 -0.6929 0.1968
vn -0.6929 -0.6929 0.1968
usemtl Meshpart4Mtl
f 1/1/1 2/2/2 3/3/3
f 2/2/2 1/1/1 4/4/4
f 5/5/5 4/4/4 1/1/1
f 6/6/6 2/2/2 4/4/4
f 4/4/4 5/5/5 7/7/7
f 8/8/8 4/4/4 7/7/7
f 6/6/6 4/4/4 8/8/8
f 8/8/8 7/7/7 9/9/9
f 10/10/10 8/8/8 9/9/9
f 11/11/11 6/6/6 8/8/8
f 8/8/8 10/10/10 11/11/11
f 12/12/12 11/11/11 10/10/10
f 11/11/11 12/12/12 13/13/13
f 6/6/6 11/11/11 14/14/14
f 13/13/13 14/14/14 11/11/11
f 14/14/14 13/13/13 15/15/15
f 16/16/16 17/17/17 18/18/18
f 17/17/17 16/16/16 19/19/19
f 17/17/17 20/20/20 18/18/18
f 20/20/20 17/17/17 21/21/21
f 22/22/22 23/23/23 24/24/24
f 24/24/24 25/25/25 22/22/22
f 24/24/24 26/26/26 25/25/25
f 26/26/26 24/24/24 27/27/27
f 28/28/28 29/29/29 30/30/30
f 29/29/29 28/28/28 31/31/31
f 32/32/32 28/28/28 33/33/33
f 28/28/28 32/32/32 31/31/31
f 34/34/34 29/29/29 31/31/31
f 32/32/32 34/34/34 31/31/31
f 29/29/29 34/34/34 35/35/35
f 34/34/34 32/32/32 36/36/36
f 37/37/37 38/38/38 39/39/39
f 38/38/38 37/37/37 40/40/40
f 40/40/40 41/41/41 38/38/38
f 42/42/42 40/40/40 37/37/37
f 41/41/41 40/40/40 43/43/43
f 44/44/44 45/45/45 46/46/46
f 44/44/44 46/46/46 47/47/47
f 47/47/47 42/42/42 44/44/44
f 47/47/47 46/46/46 48/48/48
f 42/42/42 47/47/47 49/49/49
f 40/40/40 42/42/42 49/49/49
f 49/49/49 43/43/43 40/40/40
f 43/43/43 49/49/49 50/50/50
f 51/51/51 49/49/49 47/47/47
f 47/47/47 48/48/48 51/51/51
f 49/49/49 51/51/51 50/50/50
f 52/52/52 53/53/53 54/54/54
f 55/55/55 52/52/52 56/56/56
f 53/53/53 52/52/52 57/57/57
f 52/52/52 55/55/55 57/57/57
f 58/58/58 59/59/59 60/60/60
f 60/60/60 61/61/61 58/58/58
f 60/60/60 62/62/62 61/61/61
f 62/62/62 60/60/60 63/63/63
f 64/64/64 65/65/65 66/66/66
f 64/64/64 66/66/66 67/67/67
f 65/65/65 64/64/64 68/68/68
f 67/67/67 69/69/69 64/64/64
f 70/70/70 64/64/64 69/69/69
f 64/64/64 70/70/70 71/71/71
f 64/64/64 71/71/71 72/72/72
f 72/72/72 68/68/68 64/64/64
f 73/73/73 74/74/74 75/75/75
f 76/76/76 73/73/73 77/77/77
f 74/74/74 73/73/73 78/78/78
f 76/76/76 78/78/78 73/73/73
f 79/79/79 80/80/80 81/81/81
f 80/80/80 79/79/79 82/82/82
f 83/83/83 82/82/82 79/79/79
f 83/83/83 79/79/79 84/84/84
f 85/85/85 86/86/86 87/87/87
f 88/88/88 87/87/87 86/86/86
f 85/85/85 87/87/87 89/89/89
f 87/87/87 88/88/88 90/90/90
f 91/91/91 92/92/92 93/93/93
f 91/91/91 94/94/94 92/92/92
f 95/95/95 92/92/92 94/94/94
f 92/92/92 95/95/95 96/96/96
