# Irons | length 4 | barrel -X up +Y
mtllib electroburst.mtl
g irons
v -0.047560 0.412475 0.187375
v -0.057146 0.435576 0.187375
v -0.066360 0.435576 0.168700
v -0.047560 0.458672 0.187375
v -0.054096 0.405939 0.168700
v -0.054096 0.465208 0.168700
v -0.073767 0.435576 0.122012
v -0.055839 0.466963 0.156873
v -0.059325 0.470449 0.122012
v -0.068850 0.435576 0.156873
v -0.055839 0.404183 0.156873
v -0.059325 0.400697 0.122012
v -0.024465 0.477484 0.168700
v -0.054096 0.465208 0.168700
v -0.047560 0.458672 0.187375
v -0.024465 0.468240 0.187375
v -0.001370 0.458672 0.187375
v 0.005167 0.465208 0.168700
v 0.006910 0.466963 0.156873
v -0.024465 0.484898 0.122012
v -0.024465 0.479961 0.156873
v -0.055839 0.466963 0.156873
v 0.010396 0.470449 0.122012
v -0.059325 0.470449 0.122012
v 0.017430 0.435576 0.168700
v -0.001370 0.412475 0.187375
v 0.005167 0.405939 0.168700
v 0.005167 0.465208 0.168700
v -0.001370 0.458672 0.187375
v 0.008217 0.435576 0.187375
v 0.006910 0.466963 0.156873
v 0.024838 0.435576 0.122012
v 0.010396 0.470449 0.122012
v 0.019920 0.435576 0.156873
v 0.006910 0.404183 0.156873
v 0.010396 0.400697 0.122012
v -0.024465 0.393669 0.168700
v -0.047560 0.412475 0.187375
v -0.054096 0.405939 0.168700
v -0.024465 0.402907 0.187375
v -0.001370 0.412475 0.187375
v 0.005167 0.405939 0.168700
v 0.006910 0.404183 0.156873
v -0.024465 0.386249 0.122012
v 0.010396 0.400697 0.122012
v -0.055839 0.404183 0.156873
v -0.059325 0.400697 0.122012
v -0.024465 0.391185 0.156873
v -0.047560 0.412475 0.187375
v -0.001370 0.458672 0.187375
v -0.047560 0.458672 0.187375
v -0.024465 0.468240 0.187375
v -0.057146 0.435576 0.187375
v -0.001370 0.412475 0.187375
v 0.008217 0.435576 0.187375
v -0.024465 0.402907 0.187375
vt 36.0066 -57.0046 
vt 36.0066 -57 
vt 36.0028 -57 
vt 36.0066 -56.9954 
vt 36.0028 -57.006 
vt 36.0028 -56.994 
vt 35.9934 -57 
vt 36.0004 -56.9937 
vt 35.9934 -56.993 
vt 36.0004 -57 
vt 36.0004 -57.0063 
vt 35.9934 -57.007 
vt 36 -57.0028 
vt 35.994 -57.0028 
vt 35.9954 -57.0066 
vt 36 -57.0066 
vt 36.0046 -57.0066 
vt 36.006 -57.0028 
vt 36.0063 -57.0004 
vt 36 -56.9934 
vt 36 -57.0004 
vt 35.9937 -57.0004 
vt 36.007 -56.9934 
vt 35.993 -56.9934 
vt 35.9972 -57 
vt 35.9934 -57.0046 
vt 35.9972 -57.006 
vt 35.9972 -56.994 
vt 35.9934 -56.9954 
vt 35.9934 -57 
vt 35.9996 -56.9937 
vt 36.0066 -57 
vt 36.0066 -56.993 
vt 35.9996 -57 
vt 35.9996 -57.0063 
vt 36.0066 -57.007 
vt 36 -57.0028 
vt 36.0046 -57.0066 
vt 36.006 -57.0028 
vt 36 -57.0066 
vt 35.9954 -57.0066 
vt 35.994 -57.0028 
vt 35.9937 -57.0004 
vt 36 -56.9934 
vt 35.993 -56.9934 
vt 36.0063 -57.0004 
vt 36.007 -56.9934 
vt 36 -57.0004 
vt 35.9954 -57.0046 
vt 36.0046 -56.9954 
vt 35.9954 -56.9954 
vt 36 -56.9934 
vt 35.9934 -57 
vt 36.0046 -57.0046 
vt 36.0066 -57 
vt 36 -57.0066 
vn -0.6299 -0.6299 0.4409
vn -0.8976 0.0000 0.4409
vn -0.8976 0.0000 0.4409
vn -0.6299 0.6299 0.4409
vn -0.6299 -0.6299 0.4409
vn -0.6299 0.6299 0.4409
vn -0.9921 0.0000 0.1417
vn -0.7008 0.7008 0.1417
vn -0.7008 0.7008 0.1417
vn -0.9921 0.0000 0.1417
vn -0.7008 -0.7008 0.1417
vn -0.7008 -0.7008 0.1417
vn 0.0000 0.8976 0.4409
vn -0.6299 0.6299 0.4409
vn -0.6299 0.6299 0.4409
vn 0.0000 0.8976 0.4409
vn 0.6299 0.6299 0.4409
vn 0.6299 0.6299 0.4409
vn 0.7008 0.7008 0.1417
vn 0.0000 0.9921 0.1417
vn 0.0000 0.9921 0.1417
vn -0.7008 0.7008 0.1417
vn 0.7008 0.7008 0.1417
vn -0.7008 0.7008 0.1417
vn 0.8976 0.0000 0.4409
vn 0.6299 -0.6299 0.4409
vn 0.6299 -0.6299 0.4409
vn 0.6299 0.6299 0.4409
vn 0.6299 0.6299 0.4409
vn 0.8976 0.0000 0.4409
vn 0.7008 0.7008 0.1417
vn 0.9921 0.0000 0.1417
vn 0.7008 0.7008 0.1417
vn 0.9921 0.0000 0.1417
vn 0.7008 -0.7008 0.1417
vn 0.7008 -0.7008 0.1417
vn 0.0000 -0.8976 0.4409
vn -0.6299 -0.6299 0.4409
vn -0.6299 -0.6299 0.4409
vn 0.0000 -0.8976 0.4409
vn 0.6299 -0.6299 0.4409
vn 0.6299 -0.6299 0.4409
vn 0.7008 -0.7008 0.1417
vn 0.0000 -0.9921 0.1417
vn 0.7008 -0.7008 0.1417
vn -0.7008 -0.7008 0.1417
vn -0.7008 -0.7008 0.1417
vn 0.0000 -0.9921 0.1417
vn 0.0000 0.0000 1.0000
vn 0.0000 0.0000 1.0000
vn 0.0000 0.0000 1.0000
vn 0.0000 0.0000 1.0000
vn 0.0000 0.0000 1.0000
vn 0.0000 0.0000 1.0000
vn 0.0000 0.0000 1.0000
vn 0.0000 0.0000 1.0000
usemtl Meshpart2Mtl
f 1/1/1 2/2/2 3/3/3
f 4/4/4 3/3/3 2/2/2
f 3/3/3 5/5/5 1/1/1
f 3/3/3 4/4/4 6/6/6
f 7/7/7 8/8/8 9/9/9
f 8/8/8 7/7/7 10/10/10
f 7/7/7 11/11/11 10/10/10
f 11/11/11 7/7/7 12/12/12
f 13/13/13 14/14/14 15/15/15
f 15/15/15 16/16/16 13/13/13
f 17/17/17 13/13/13 16/16/16
f 13/13/13 17/17/17 18/18/18
f 19/19/19 20/20/20 21/21/21
f 20/20/20 22/22/22 21/21/21
f 20/20/20 19/19/19 23/23/23
f 22/22/22 20/20/20 24/24/24
f 25/25/25 26/26/26 27/27/27
f 25/25/25 28/28/28 29/29/29
f 26/26/26 25/25/25 30/30/30
f 29/29/29 30/30/30 25/25/25
f 31/31/31 32/32/32 33/33/33
f 32/32/32 31/31/31 34/34/34
f 35/35/35 32/32/32 34/34/34
f 32/32/32 35/35/35 36/36/36
f 37/37/37 38/38/38 39/39/39
f 38/38/38 37/37/37 40/40/40
f 41/41/41 40/40/40 37/37/37
f 37/37/37 42/42/42 41/41/41
f 43/43/43 44/44/44 45/45/45
f 44/44/44 46/46/46 47/47/47
f 44/44/44 43/43/43 48/48/48
f 46/46/46 44/44/44 48/48/48
f 49/49/49 50/50/50 51/51/51
f 51/51/51 50/50/50 52/52/52
f 49/49/49 51/51/51 53/53/53
f 49/49/49 54/54/54 50/50/50
f 50/50/50 54/54/54 55/55/55
f 54/54/54 49/49/49 56/56/56
