# Magazine body | length 4 | barrel -X up +Y
mtllib electroburst.mtl
g mag_body
v 0.356636 -0.715687 0.093999
v 0.331985 -0.799272 -0.157495
v 0.356636 -0.715687 -0.157495
v 0.331985 -0.799272 0.093999
v 0.335782 -0.636442 -0.135085
v 0.335782 -0.636442 0.071589
v 0.513695 -0.377322 -0.135085
v 0.513695 -0.377322 0.071589
v 0.523344 -0.033099 -0.135085
v 0.523344 -0.033099 0.071589
v 0.159051 -0.021794 -0.135085
v 0.159051 -0.021794 0.071589
v 0.141808 -0.283696 -0.135085
v 0.141808 -0.283696 0.071589
v 0.020792 -0.462151 -0.135085
v 0.020792 -0.462151 0.071589
v 0.523344 -0.033099 -0.135085
v 0.076755 0.079345 -0.135085
v 0.076755 0.079345 0.071589
v 0.523344 -0.033099 0.071589
v -0.180715 -0.557084 -0.157495
v -0.180715 -0.557084 0.093999
v -0.105889 -0.506069 0.071589
v -0.105889 -0.506069 -0.135085
v 0.020792 -0.462151 -0.135085
v 0.020792 -0.462151 0.071589
v 0.300237 -0.544646 -0.135085
v 0.300237 -0.544646 0.071589
v 0.356636 -0.715687 0.093999
v -0.205366 -0.640669 0.093999
v 0.331985 -0.799272 0.093999
v -0.180715 -0.557084 0.093999
v -0.105889 -0.506069 0.071589
v 0.335782 -0.636442 0.071589
v 0.020792 -0.462151 0.071589
v 0.067107 -0.264878 0.071589
v 0.300237 -0.544646 0.071589
v 0.141808 -0.283696 0.071589
v 0.513695 -0.377322 0.071589
v 0.159051 -0.021794 0.071589
v 0.424427 -0.354843 0.071589
v 0.076755 0.079345 0.071589
v 0.441609 -0.092941 0.071589
v 0.523344 -0.033099 0.071589
v -0.205366 -0.640669 -0.157495
v -0.205366 -0.640669 0.093999
v -0.180715 -0.557084 -0.157495
v -0.180715 -0.557084 0.093999
v -0.105889 -0.506069 -0.135085
v -0.105889 -0.506069 0.071589
v 0.067107 -0.264878 0.071589
v 0.067107 -0.264878 -0.135085
v 0.076755 0.079345 0.071589
v 0.076755 0.079345 -0.135085
v 0.424427 -0.354843 -0.135085
v 0.424427 -0.354843 0.071589
v 0.441609 -0.092941 -0.135085
v 0.441609 -0.092941 0.071589
v 0.300237 -0.544646 0.071589
v 0.300237 -0.544646 -0.135085
v -0.205366 -0.640669 -0.157495
v 0.331985 -0.799272 -0.157495
v 0.331985 -0.799272 0.093999
v -0.205366 -0.640669 0.093999
v 0.441609 -0.092941 -0.135085
v 0.441609 -0.092941 0.071589
v 0.159051 -0.021794 -0.135085
v 0.159051 -0.021794 0.071589
v 0.331985 -0.799272 -0.157495
v -0.205366 -0.640669 -0.157495
v 0.356636 -0.715687 -0.157495
v -0.180715 -0.557084 -0.157495
v -0.105889 -0.506069 -0.135085
v 0.335782 -0.636442 -0.135085
v 0.020792 -0.462151 -0.135085
v 0.067107 -0.264878 -0.135085
v 0.300237 -0.544646 -0.135085
v 0.141808 -0.283696 -0.135085
v 0.513695 -0.377322 -0.135085
v 0.159051 -0.021794 -0.135085
v 0.424427 -0.354843 -0.135085
v 0.076755 0.079345 -0.135085
v 0.441609 -0.092941 -0.135085
v 0.523344 -0.033099 -0.135085
vt 21.9748 -59.0714 
vt 22.0252 -59.0882 
vt 22.0252 -59.0714 
vt 21.9748 -59.0882 
vt 22.0207 -59.0555 
vt 21.9793 -59.0555 
vt 22.0207 -59.0035 
vt 21.9793 -59.0035 
vt 22.0207 -58.9344 
vt 21.9793 -58.9344 
vt 22.0207 -58.9321 
vt 21.9793 -58.9321 
vt 22.0207 -58.9847 
vt 21.9793 -58.9847 
vt 22.0207 -59.0205 
vt 21.9793 -59.0205 
vt 21.9268 -59.0207 
vt 22.0165 -59.0207 
vt 22.0165 -58.9793 
vt 21.9268 -58.9793 
vt 22.0682 -59.0252 
vt 22.0682 -58.9748 
vt 22.0532 -58.9793 
vt 22.0532 -59.0207 
vt 22.0277 -59.0207 
vt 22.0277 -58.9793 
vt 21.9716 -59.0207 
vt 21.9716 -58.9793 
vt 22.0397 -59.0714 
vt 21.9268 -59.0564 
vt 22.0347 -59.0882 
vt 21.9318 -59.0396 
vt 21.9468 -59.0293 
vt 22.0355 -59.0555 
vt 21.9723 -59.0205 
vt 21.9816 -58.9809 
vt 22.0284 -59.0371 
vt 21.9966 -58.9847 
vt 22.0712 -59.0035 
vt 22 -58.9321 
vt 22.0533 -58.999 
vt 21.9835 -58.9118 
vt 22.0568 -58.9464 
vt 22.0732 -58.9344 
vt 21.9748 -59.0564 
vt 22.0252 -59.0564 
vt 21.9748 -59.0396 
vt 22.0252 -59.0396 
vt 21.9793 -59.0293 
vt 22.0207 -59.0293 
vt 22.0207 -58.9809 
vt 21.9793 -58.9809 
vt 22.0207 -58.9118 
vt 21.9793 -58.9118 
vt 21.9793 -58.999 
vt 22.0207 -58.999 
vt 21.9793 -58.9464 
vt 22.0207 -58.9464 
vt 22.0207 -59.0371 
vt 21.9793 -59.0371 
vt 21.9268 -59.0252 
vt 22.0347 -59.0252 
vt 22.0347 -58.9748 
vt 21.9268 -58.9748 
vt 22.0568 -59.0207 
vt 22.0568 -58.9793 
vt 22 -59.0207 
vt 22 -58.9793 
vt 21.9653 -59.0882 
vt 22.0732 -59.0564 
vt 21.9603 -59.0714 
vt 22.0682 -59.0396 
vt 22.0532 -59.0293 
vt 21.9645 -59.0555 
vt 22.0277 -59.0205 
vt 22.0184 -58.9809 
vt 21.9716 -59.0371 
vt 22.0034 -58.9847 
vt 21.9288 -59.0035 
vt 22 -58.9321 
vt 21.9467 -58.999 
vt 22.0165 -58.9118 
vt 21.9432 -58.9464 
vt 21.9268 -58.9344 
vn 1.0000 -0.0236 -0.0000
vn 0.9606 -0.2835 -0.0000
vn 1.0000 -0.0236 -0.0000
vn 0.9606 -0.2835 -0.0000
vn 0.9843 -0.1575 -0.0000
vn 0.9843 -0.1575 -0.0000
vn 0.9528 -0.3071 -0.0000
vn 0.9528 -0.3071 -0.0000
vn 1.0000 -0.0315 -0.0000
vn 1.0000 -0.0315 -0.0000
vn 1.0000 -0.0630 -0.0000
vn 1.0000 -0.0630 -0.0000
vn 0.9449 -0.3228 -0.0000
vn 0.9449 -0.3228 -0.0000
vn 0.8268 -0.5591 -0.0000
vn 0.8268 -0.5591 -0.0000
vn 0.2441 0.9685 -0.0000
vn 0.2441 0.9685 -0.0000
vn 0.2441 0.9685 -0.0000
vn 0.2441 0.9685 -0.0000
vn -0.8110 0.5827 -0.0000
vn -0.8110 0.5827 -0.0000
vn -0.6929 0.7165 -0.0000
vn -0.6929 0.7165 -0.0000
vn 0.2835 0.9606 -0.0000
vn 0.2835 0.9606 -0.0000
vn 0.2835 0.9606 -0.0000
vn 0.2835 0.9606 -0.0000
vn 0.0315 0.1181 0.9921
vn 0.0000 0.0000 1.0000
vn 0.0000 0.0000 1.0000
vn 0.0315 0.1102 0.9921
vn 0.0551 0.1968 0.9764
vn 0.0472 0.1575 0.9843
vn 0.0000 0.0000 1.0000
vn 0.0000 0.0000 1.0000
vn 0.0000 0.0000 1.0000
vn 0.0000 0.0000 1.0000
vn 0.0000 0.0000 1.0000
vn 0.0000 0.0000 1.0000
vn 0.0000 0.0000 1.0000
vn 0.0000 0.0000 1.0000
vn 0.0000 0.0000 1.0000
vn 0.0000 0.0000 1.0000
vn -0.9606 0.2835 -0.0000
vn -0.9606 0.2835 -0.0000
vn -0.8110 0.5827 -0.0000
vn -0.8110 0.5827 -0.0000
vn -0.6929 0.7165 -0.0000
vn -0.6929 0.7165 -0.0000
vn -0.9449 0.3228 -0.0000
vn -0.9449 0.3228 -0.0000
vn -1.0000 0.0315 -0.0000
vn -1.0000 0.0315 -0.0000
vn -0.9449 0.3150 -0.0000
vn -0.9449 0.3150 -0.0000
vn -1.0000 0.0630 -0.0000
vn -1.0000 0.0630 -0.0000
vn -0.8346 0.5512 -0.0000
vn -0.8346 0.5512 -0.0000
vn -0.2835 -0.9606 -0.0000
vn -0.2835 -0.9606 -0.0000
vn -0.2835 -0.9606 -0.0000
vn -0.2835 -0.9606 -0.0000
vn -0.2441 -0.9685 -0.0000
vn -0.2441 -0.9685 -0.0000
vn -0.2441 -0.9685 -0.0000
vn -0.2441 -0.9685 -0.0000
vn 0.0000 0.0000 -1.0000
vn 0.0000 0.0000 -1.0000
vn 0.0315 0.1181 -0.9921
vn 0.0315 0.1102 -0.9921
vn 0.0551 0.1968 -0.9764
vn 0.0472 0.1575 -0.9843
vn 0.0000 0.0000 -1.0000
vn 0.0000 0.0000 -1.0000
vn 0.0000 0.0000 -1.0000
vn 0.0000 0.0000 -1.0000
vn 0.0000 0.0000 -1.0000
vn 0.0000 0.0000 -1.0000
vn 0.0000 0.0000 -1.0000
vn 0.0000 0.0000 -1.0000
vn 0.0000 0.0000 -1.0000
vn 0.0000 0.0000 -1.0000
usemtl Meshpart2Mtl
f 1/1/1 2/2/2 3/3/3
f 2/2/2 1/1/1 4/4/4
f 5/5/5 1/1/1 3/3/3
f 1/1/1 5/5/5 6/6/6
f 7/7/7 6/6/6 5/5/5
f 6/6/6 7/7/7 8/8/8
f 9/9/9 8/8/8 7/7/7
f 8/8/8 9/9/9 10/10/10
f 11/11/11 12/12/12 13/13/13
f 13/13/13 12/12/12 14/14/14
f 14/14/14 15/15/15 13/13/13
f 15/15/15 14/14/14 16/16/16
f 17/17/17 18/18/18 19/19/19
f 17/17/17 19/19/19 20/20/20
f 21/21/21 22/22/22 23/23/23
f 23/23/23 24/24/24 21/21/21
f 25/25/25 26/26/26 27/27/27
f 27/27/27 26/26/26 28/28/28
f 29/29/29 30/30/30 31/31/31
f 30/30/30 29/29/29 32/32/32
f 29/29/29 33/33/33 32/32/32
f 33/33/33 29/29/29 34/34/34
f 34/34/34 35/35/35 33/33/33
f 36/36/36 33/33/33 35/35/35
f 35/35/35 34/34/34 37/37/37
f 36/36/36 35/35/35 38/38/38
f 39/39/39 37/37/37 34/34/34
f 40/40/40 36/36/36 38/38/38
f 37/37/37 39/39/39 41/41/41
f 36/36/36 40/40/40 42/42/42
f 43/43/43 41/41/41 39/39/39
f 44/44/44 42/42/42 40/40/40
f 44/44/44 40/40/40 43/43/43
f 39/39/39 44/44/44 43/43/43
f 45/45/45 46/46/46 47/47/47
f 47/47/47 46/46/46 48/48/48
f 49/49/49 50/50/50 51/51/51
f 52/52/52 49/49/49 51/51/51
f 52/52/52 51/51/51 53/53/53
f 54/54/54 52/52/52 53/53/53
f 55/55/55 56/56/56 57/57/57
f 57/57/57 56/56/56 58/58/58
f 55/55/55 59/59/59 56/56/56
f 60/60/60 59/59/59 55/55/55
f 61/61/61 62/62/62 63/63/63
f 61/61/61 63/63/63 64/64/64
f 65/65/65 66/66/66 67/67/67
f 67/67/67 66/66/66 68/68/68
f 69/69/69 70/70/70 71/71/71
f 71/71/71 70/70/70 72/72/72
f 71/71/71 72/72/72 73/73/73
f 71/71/71 73/73/73 74/74/74
f 74/74/74 73/73/73 75/75/75
f 76/76/76 75/75/75 73/73/73
f 74/74/74 75/75/75 77/77/77
f 75/75/75 76/76/76 78/78/78
f 77/77/77 79/79/79 74/74/74
f 76/76/76 80/80/80 78/78/78
f 79/79/79 77/77/77 81/81/81
f 76/76/76 82/82/82 80/80/80
f 83/83/83 79/79/79 81/81/81
f 84/84/84 80/80/80 82/82/82
f 79/79/79 83/83/83 84/84/84
f 80/80/80 84/84/84 83/83/83
