# Magazine inner | length 4 | barrel -X up +Y
mtllib electroburst.mtl
g mag_inner
v 0.406063 -0.068383 -0.031748
v 0.369335 -0.336211 -0.064119
v 0.393302 -0.064903 -0.064119
v 0.382159 -0.339517 -0.031748
v 0.231387 -0.552185 -0.064119
v 0.243962 -0.556431 -0.031748
v 0.231387 -0.552185 -0.000000
v 0.369335 -0.336211 -0.000000
v 0.393302 -0.064903 -0.000000
v 0.270418 -0.036884 -0.000000
v 0.241845 -0.306337 -0.000000
v 0.283304 -0.039878 -0.031748
v 0.110371 -0.506150 -0.000000
v 0.254731 -0.309500 -0.031748
v 0.122946 -0.510377 -0.031748
v 0.110371 -0.506150 -0.064119
v 0.241845 -0.306337 -0.064119
v 0.270418 -0.036884 -0.064119
v 0.331549 -0.048101 -0.064119
v 0.393302 -0.064903 -0.064119
v 0.362425 -0.056505 -0.077191
v 0.318725 -0.044622 -0.031748
v 0.406063 -0.068383 -0.031748
v 0.393302 -0.064903 -0.000000
v 0.331549 -0.048101 -0.000000
v 0.362425 -0.056505 0.013695
v 0.208043 -0.022417 -0.064119
v 0.270418 -0.036884 -0.064119
v 0.239231 -0.029650 -0.077191
v 0.195157 -0.019422 -0.031748
v 0.283304 -0.039878 -0.031748
v 0.270418 -0.036884 -0.000000
v 0.208043 -0.022417 -0.000000
v 0.239231 -0.029650 0.013695
v 0.231387 -0.552185 -0.000000
v 0.338334 -0.328218 0.013695
v 0.201071 -0.541926 0.013695
v 0.307333 -0.320232 -0.000000
v 0.170754 -0.531673 -0.000000
v 0.362425 -0.056505 0.013695
v 0.331549 -0.048101 -0.000000
v 0.393302 -0.064903 -0.000000
v 0.369335 -0.336211 -0.000000
v 0.179656 -0.291073 -0.000000
v 0.239231 -0.029650 0.013695
v 0.208043 -0.022417 -0.000000
v 0.079993 -0.495947 0.013695
v 0.049676 -0.485745 -0.000000
v 0.210782 -0.298705 0.013695
v 0.110371 -0.506150 -0.000000
v 0.270418 -0.036884 -0.000000
v 0.241845 -0.306337 -0.000000
v 0.170754 -0.531673 -0.000000
v 0.307333 -0.320232 -0.000000
v 0.158180 -0.527422 -0.031748
v 0.331549 -0.048101 -0.000000
v 0.294509 -0.316926 -0.031748
v 0.318725 -0.044622 -0.031748
v 0.331549 -0.048101 -0.064119
v 0.307333 -0.320232 -0.064119
v 0.170754 -0.531673 -0.064119
v 0.166833 -0.287911 -0.031748
v 0.208043 -0.022417 -0.000000
v 0.195157 -0.019422 -0.031748
v 0.208043 -0.022417 -0.064119
v 0.179656 -0.291073 -0.000000
v 0.179656 -0.291073 -0.064119
v 0.037102 -0.481518 -0.031748
v 0.049676 -0.485745 -0.000000
v 0.049676 -0.485745 -0.064119
v 0.170754 -0.531673 -0.064119
v 0.243962 -0.556431 -0.031748
v 0.158180 -0.527422 -0.031748
v 0.231387 -0.552185 -0.064119
v 0.201071 -0.541926 -0.077191
v 0.231387 -0.552185 -0.000000
v 0.170754 -0.531673 -0.000000
v 0.201071 -0.541926 0.013695
v 0.110371 -0.506150 -0.064119
v 0.037102 -0.481518 -0.031748
v 0.049676 -0.485745 -0.064119
v 0.079993 -0.495947 -0.077191
v 0.122946 -0.510377 -0.031748
v 0.110371 -0.506150 -0.000000
v 0.049676 -0.485745 -0.000000
v 0.079993 -0.495947 0.013695
v 0.362425 -0.056505 -0.077191
v 0.307333 -0.320232 -0.064119
v 0.331549 -0.048101 -0.064119
v 0.170754 -0.531673 -0.064119
v 0.201071 -0.541926 -0.077191
v 0.338334 -0.328218 -0.077191
v 0.393302 -0.064903 -0.064119
v 0.231387 -0.552185 -0.064119
v 0.369335 -0.336211 -0.064119
v 0.239231 -0.029650 -0.077191
v 0.179656 -0.291073 -0.064119
v 0.208043 -0.022417 -0.064119
v 0.079993 -0.495947 -0.077191
v 0.049676 -0.485745 -0.064119
v 0.210782 -0.298705 -0.077191
v 0.110371 -0.506150 -0.064119
v 0.270418 -0.036884 -0.064119
v 0.241845 -0.306337 -0.064119
vt -0.244441 0.71461 
vt -0.238014 0.66083 
vt -0.238014 0.715309 
vt -0.244441 0.660166 
vt -0.238014 0.617462 
vt -0.244441 0.616609 
vt -0.250868 0.617462 
vt -0.250868 0.66083 
vt -0.250868 0.715309 
vt -0.250868 0.720935 
vt -0.250868 0.666828 
vt -0.244441 0.720334 
vt -0.250868 0.626706 
vt -0.244441 0.666193 
vt -0.244441 0.625858 
vt -0.238014 0.626706 
vt -0.238014 0.666828 
vt -0.238014 0.720935 
vt -0.266513 0.664099 
vt -0.278916 0.664099 
vt -0.272715 0.661437 
vt -0.263945 0.670525 
vt -0.281485 0.670525 
vt -0.278916 0.676952 
vt -0.266513 0.676952 
vt -0.272715 0.679614 
vt -0.241722 0.664099 
vt -0.254242 0.664099 
vt -0.247982 0.661437 
vt -0.239128 0.670525 
vt -0.256836 0.670525 
vt -0.254242 0.676952 
vt -0.241722 0.676952 
vt -0.247982 0.679614 
vt -0.242475 0.617462 
vt -0.221 0.662434 
vt -0.248562 0.619522 
vt -0.227223 0.664038 
vt -0.25465 0.621581 
vt -0.216167 0.716995 
vt -0.222369 0.718682 
vt -0.209966 0.715309 
vt -0.214777 0.66083 
vt -0.252858 0.669894 
vt -0.2409 0.722387 
vt -0.24716 0.72384 
vt -0.272871 0.628755 
vt -0.278962 0.630804 
vt -0.246617 0.668361 
vt -0.266779 0.626706 
vt -0.23464 0.720935 
vt -0.240375 0.666828 
vt -0.238014 0.621581 
vt -0.238014 0.664038 
vt -0.244441 0.622435 
vt -0.238014 0.718682 
vt -0.244441 0.664703 
vt -0.244441 0.719381 
vt -0.250868 0.718682 
vt -0.250868 0.664038 
vt -0.250868 0.621581 
vt -0.244441 0.670529 
vt -0.238014 0.72384 
vt -0.244441 0.724441 
vt -0.250868 0.72384 
vt -0.238014 0.669894 
vt -0.250868 0.669894 
vt -0.244441 0.631653 
vt -0.238014 0.630804 
vt -0.250868 0.630804 
vt -0.25465 0.664099 
vt -0.239953 0.670525 
vt -0.257172 0.670525 
vt -0.242475 0.664099 
vt -0.248562 0.661437 
vt -0.242475 0.676952 
vt -0.25465 0.676952 
vt -0.248562 0.679614 
vt -0.266779 0.664099 
vt -0.281485 0.670525 
vt -0.278962 0.664099 
vt -0.272871 0.661437 
vt -0.264256 0.670525 
vt -0.266779 0.676952 
vt -0.278962 0.676952 
vt -0.272871 0.679614 
vt -0.272715 0.716995 
vt -0.261659 0.664038 
vt -0.266513 0.718682 
vt -0.234232 0.621581 
vt -0.24032 0.619522 
vt -0.267882 0.662434 
vt -0.278916 0.715309 
vt -0.246407 0.617462 
vt -0.274105 0.66083 
vt -0.247982 0.722387 
vt -0.236024 0.669894 
vt -0.241722 0.72384 
vt -0.216011 0.628755 
vt -0.20992 0.630804 
vt -0.242265 0.668361 
vt -0.222103 0.626706 
vt -0.254242 0.720935 
vt -0.248507 0.666828 
vn 1.0000 -0.0866 -0.0000
vn 0.6929 -0.2362 -0.6772
vn 0.6850 -0.0630 -0.7244
vn 0.9449 -0.3150 -0.0000
vn 0.5827 -0.3701 -0.7244
vn 0.8425 -0.5354 -0.0000
vn 0.5827 -0.3701 0.7244
vn 0.6929 -0.2362 0.6772
vn 0.6850 -0.0630 0.7244
vn 0.6929 -0.0709 0.7165
vn 0.6929 -0.2520 0.6772
vn 0.9921 -0.1024 -0.0000
vn 0.5748 -0.3780 0.7244
vn 0.9449 -0.3307 -0.0000
vn 0.8346 -0.5512 -0.0000
vn 0.5748 -0.3780 -0.7244
vn 0.6929 -0.2520 -0.6772
vn 0.6929 -0.0709 -0.7165
vn 0.2598 0.9685 -0.0000
vn 0.2598 0.9685 -0.0000
vn 0.2598 0.9685 -0.0000
vn 0.2598 0.9685 -0.0000
vn 0.2598 0.9685 -0.0000
vn 0.2598 0.9685 -0.0000
vn 0.2598 0.9685 -0.0000
vn 0.2598 0.9685 -0.0000
vn 0.2283 0.9764 -0.0000
vn 0.2283 0.9764 -0.0000
vn 0.2283 0.9764 -0.0000
vn 0.2283 0.9764 -0.0000
vn 0.2283 0.9764 -0.0000
vn 0.2283 0.9764 -0.0000
vn 0.2283 0.9764 -0.0000
vn 0.2283 0.9764 -0.0000
vn 0.5827 -0.3701 0.7244
vn 0.0551 -0.0236 1.0000
vn -0.0551 0.0315 1.0000
vn -0.6378 0.2205 0.7402
vn -0.6299 0.4094 0.6614
vn -0.0472 0.0079 1.0000
vn -0.7323 0.0630 0.6772
vn 0.6850 -0.0630 0.7244
vn 0.6929 -0.2362 0.6772
vn -0.6378 0.2283 0.7402
vn -0.0315 0.0000 1.0000
vn -0.7165 0.0787 0.6929
vn -0.0551 0.0394 1.0000
vn -0.6220 0.4173 0.6614
vn 0.0551 -0.0236 1.0000
vn 0.5748 -0.3780 0.7244
vn 0.6929 -0.0709 0.7165
vn 0.6929 -0.2520 0.6772
vn -0.6299 0.4094 0.6614
vn -0.6378 0.2205 0.7402
vn -0.8425 0.5433 -0.0000
vn -0.7323 0.0630 0.6772
vn -0.9449 0.3307 -0.0000
vn -1.0000 0.0866 -0.0000
vn -0.7323 0.0630 -0.6772
vn -0.6378 0.2205 -0.7402
vn -0.6299 0.4094 -0.6614
vn -0.9370 0.3465 -0.0000
vn -0.7165 0.0787 0.6929
vn -0.9921 0.1024 -0.0000
vn -0.7165 0.0787 -0.6929
vn -0.6378 0.2283 0.7402
vn -0.6378 0.2283 -0.7402
vn -0.8346 0.5591 -0.0000
vn -0.6220 0.4173 0.6614
vn -0.6220 0.4173 -0.6614
vn -0.3228 -0.9449 -0.0000
vn -0.3228 -0.9449 -0.0000
vn -0.3228 -0.9449 -0.0000
vn -0.3228 -0.9449 -0.0000
vn -0.3228 -0.9449 -0.0000
vn -0.3228 -0.9449 -0.0000
vn -0.3228 -0.9449 -0.0000
vn -0.3228 -0.9449 -0.0000
vn -0.3228 -0.9449 -0.0000
vn -0.3228 -0.9449 -0.0000
vn -0.3228 -0.9449 -0.0000
vn -0.3228 -0.9449 -0.0000
vn -0.3228 -0.9449 -0.0000
vn -0.3228 -0.9449 -0.0000
vn -0.3228 -0.9449 -0.0000
vn -0.3228 -0.9449 -0.0000
vn -0.0472 0.0079 -1.0000
vn -0.6378 0.2205 -0.7402
vn -0.7323 0.0630 -0.6772
vn -0.6299 0.4094 -0.6614
vn -0.0551 0.0315 -1.0000
vn 0.0551 -0.0236 -1.0000
vn 0.6850 -0.0630 -0.7244
vn 0.5827 -0.3701 -0.7244
vn 0.6929 -0.2362 -0.6772
vn -0.0315 0.0000 -1.0000
vn -0.6378 0.2283 -0.7402
vn -0.7165 0.0787 -0.6929
vn -0.0551 0.0394 -1.0000
vn -0.6220 0.4173 -0.6614
vn 0.0551 -0.0236 -1.0000
vn 0.5748 -0.3780 -0.7244
vn 0.6929 -0.0709 -0.7165
vn 0.6929 -0.2520 -0.6772
usemtl Meshpart8Mtl
f 1/1/1 2/2/2 3/3/3
f 4/4/4 5/5/5 2/2/2
f 2/2/2 1/1/1 4/4/4
f 5/5/5 4/4/4 6/6/6
f 4/4/4 7/7/7 6/6/6
f 1/1/1 8/8/8 4/4/4
f 7/7/7 4/4/4 8/8/8
f 8/8/8 1/1/1 9/9/9
f 10/10/10 11/11/11 12/12/12
f 11/11/11 13/13/13 14/14/14
f 14/14/14 12/12/12 11/11/11
f 15/15/15 14/14/14 13/13/13
f 16/16/16 14/14/14 15/15/15
f 17/17/17 12/12/12 14/14/14
f 14/14/14 16/16/16 17/17/17
f 12/12/12 17/17/17 18/18/18
f 19/19/19 20/20/20 21/21/21
f 22/22/22 20/20/20 19/19/19
f 20/20/20 22/22/22 23/23/23
f 22/22/22 24/24/24 23/23/23
f 24/24/24 22/22/22 25/25/25
f 24/24/24 25/25/25 26/26/26
f 27/27/27 28/28/28 29/29/29
f 30/30/30 28/28/28 27/27/27
f 28/28/28 30/30/30 31/31/31
f 30/30/30 32/32/32 31/31/31
f 32/32/32 30/30/30 33/33/33
f 32/32/32 33/33/33 34/34/34
f 35/35/35 36/36/36 37/37/37
f 38/38/38 37/37/37 36/36/36
f 37/37/37 38/38/38 39/39/39
f 36/36/36 40/40/40 38/38/38
f 38/38/38 40/40/40 41/41/41
f 36/36/36 42/42/42 40/40/40
f 36/36/36 35/35/35 43/43/43
f 43/43/43 42/42/42 36/36/36
f 44/44/44 45/45/45 46/46/46
f 47/47/47 44/44/44 48/48/48
f 44/44/44 47/47/47 49/49/49
f 49/49/49 45/45/45 44/44/44
f 50/50/50 49/49/49 47/47/47
f 49/49/49 51/51/51 45/45/45
f 52/52/52 51/51/51 49/49/49
f 49/49/49 50/50/50 52/52/52
f 53/53/53 54/54/54 55/55/55
f 54/54/54 56/56/56 57/57/57
f 57/57/57 55/55/55 54/54/54
f 58/58/58 57/57/57 56/56/56
f 59/59/59 57/57/57 58/58/58
f 60/60/60 55/55/55 57/57/57
f 57/57/57 59/59/59 60/60/60
f 55/55/55 60/60/60 61/61/61
f 62/62/62 63/63/63 64/64/64
f 65/65/65 62/62/62 64/64/64
f 63/63/63 62/62/62 66/66/66
f 62/62/62 65/65/65 67/67/67
f 68/68/68 66/66/66 62/62/62
f 67/67/67 68/68/68 62/62/62
f 66/66/66 68/68/68 69/69/69
f 68/68/68 67/67/67 70/70/70
f 71/71/71 72/72/72 73/73/73
f 72/72/72 71/71/71 74/74/74
f 74/74/74 71/71/71 75/75/75
f 76/76/76 73/73/73 72/72/72
f 73/73/73 76/76/76 77/77/77
f 77/77/77 76/76/76 78/78/78
f 79/79/79 80/80/80 81/81/81
f 79/79/79 81/81/81 82/82/82
f 83/83/83 80/80/80 79/79/79
f 84/84/84 80/80/80 83/83/83
f 80/80/80 84/84/84 85/85/85
f 85/85/85 84/84/84 86/86/86
f 87/87/87 88/88/88 89/89/89
f 90/90/90 88/88/88 91/91/91
f 88/88/88 87/87/87 92/92/92
f 92/92/92 91/91/91 88/88/88
f 93/93/93 92/92/92 87/87/87
f 91/91/91 92/92/92 94/94/94
f 92/92/92 93/93/93 95/95/95
f 95/95/95 94/94/94 92/92/92
f 96/96/96 97/97/97 98/98/98
f 97/97/97 99/99/99 100/100/100
f 99/99/99 97/97/97 101/101/101
f 97/97/97 96/96/96 101/101/101
f 101/101/101 102/102/102 99/99/99
f 103/103/103 101/101/101 96/96/96
f 102/102/102 101/101/101 104/104/104
f 101/101/101 103/103/103 104/104/104
