# Upper body | length 4 | barrel -X up +Y
mtllib electroburst.mtl
g upper
v -1.031063 0.512014 0.078436
v -1.038098 0.528984 -0.141932
v -1.038098 0.528984 0.078436
v -1.031063 0.512014 -0.141932
v -1.038098 0.495051 0.078436
v -1.038098 0.495051 -0.141932
v 0.856138 0.732825 0.078436
v 0.849104 0.749795 -0.141932
v 0.849104 0.749795 0.078436
v 0.856138 0.732825 -0.141932
v 0.849104 0.715855 0.078436
v 0.849104 0.715855 -0.141932
v 0.171439 0.512014 0.078436
v 0.164405 0.528984 -0.141932
v 0.164405 0.528984 0.078436
v 0.171439 0.512014 -0.141932
v 0.164405 0.495051 0.078436
v 0.164405 0.495051 -0.141932
v -0.880789 0.732825 0.078436
v -0.887824 0.749795 -0.141932
v -0.887824 0.749795 0.078436
v -0.880789 0.732825 -0.141932
v -0.887824 0.715855 0.078436
v -0.887824 0.715855 -0.141932
v -0.697024 0.512014 0.078436
v -0.704059 0.528984 -0.141932
v -0.704059 0.528984 0.078436
v -0.697024 0.512014 -0.141932
v -0.704059 0.495051 0.078436
v -0.704059 0.495051 -0.141932
v 0.722547 0.512014 0.078436
v 0.715513 0.528984 -0.141932
v 0.715513 0.528984 0.078436
v 0.722547 0.512014 -0.141932
v 0.715513 0.495051 0.078436
v 0.715513 0.495051 -0.141932
v -1.139069 0.364897 -0.181150
v -1.139069 0.364897 0.117032
v -1.139069 0.266073 -0.181150
v -1.139069 0.266073 0.117032
v -1.139069 0.464517 0.017430
v -1.139069 0.166453 0.017430
v -1.139069 0.464517 -0.081549
v -1.139069 0.166453 -0.081549
v -1.055092 0.536018 -0.141932
v -1.038098 0.528984 0.078436
v -1.038098 0.528984 -0.141932
v -1.055092 0.536018 0.078436
v -1.072024 0.528984 -0.141932
v -1.072024 0.528984 0.078436
v -1.139069 0.464517 -0.081549
v -1.207545 0.419802 -0.081549
v -1.139069 0.464517 0.017430
v -1.207545 0.419802 0.017430
v 0.815177 0.749795 -0.141932
v 0.832171 0.756823 0.078436
v 0.832171 0.756823 -0.141932
v 0.849104 0.749795 0.078436
v 0.815177 0.749795 0.078436
v 0.849104 0.749795 -0.141932
v 0.130416 0.528984 -0.141932
v 0.147410 0.536018 0.078436
v 0.147410 0.536018 -0.141932
v 0.164405 0.528984 0.078436
v 0.130416 0.528984 0.078436
v 0.164405 0.528984 -0.141932
v -0.921750 0.749795 -0.141932
v -0.904756 0.756823 0.078436
v -0.904756 0.756823 -0.141932
v -0.887824 0.749795 0.078436
v -0.921750 0.749795 0.078436
v -0.887824 0.749795 -0.141932
v -0.738048 0.528984 -0.141932
v -0.721053 0.536018 0.078436
v -0.721053 0.536018 -0.141932
v -0.704059 0.528984 0.078436
v -0.738048 0.528984 0.078436
v -0.704059 0.528984 -0.141932
v -1.207545 0.364897 -0.136330
v -1.139069 0.364897 0.117032
v -1.139069 0.364897 -0.181150
v -1.207545 0.364897 0.072211
v 0.698581 0.536018 -0.141932
v 0.715513 0.528984 0.078436
v 0.715513 0.528984 -0.141932
v 0.698581 0.536018 0.078436
v 0.681586 0.528984 -0.141932
v 0.681586 0.528984 0.078436
v -1.139069 0.266073 0.117032
v -1.207545 0.364897 0.072211
v -1.207545 0.266073 0.072211
v -1.139069 0.364897 0.117032
v 0.164405 0.495051 0.078436
v 0.123444 0.512014 0.078436
v 0.130416 0.495051 0.078436
v 0.147410 0.488023 0.078436
v 0.171439 0.512014 0.078436
v 0.164405 0.528984 0.078436
v 0.130416 0.528984 0.078436
v 0.147410 0.536018 0.078436
v 0.681586 0.495051 0.078436
v 0.681586 0.528984 0.078436
v 0.674552 0.512014 0.078436
v 0.715513 0.528984 0.078436
v 0.698581 0.536018 0.078436
v 0.722547 0.512014 0.078436
v 0.715513 0.495051 0.078436
v 0.698581 0.488023 0.078436
v -0.738048 0.495051 0.078436
v -0.738048 0.528984 0.078436
v -0.745020 0.512014 0.078436
v -0.704059 0.528984 0.078436
v -0.721053 0.536018 0.078436
v -0.697024 0.512014 0.078436
v -0.704059 0.495051 0.078436
v -0.721053 0.488023 0.078436
v -1.072024 0.495051 0.078436
v -1.072024 0.528984 0.078436
v -1.079059 0.512014 0.078436
v -1.038098 0.528984 0.078436
v -1.055092 0.536018 0.078436
v -1.031063 0.512014 0.078436
v -1.038098 0.495051 0.078436
v -1.055092 0.488023 0.078436
v 0.815177 0.715855 0.078436
v 0.815177 0.749795 0.078436
v 0.808142 0.732825 0.078436
v 0.832171 0.756823 0.078436
v 0.849104 0.715855 0.078436
v 0.832171 0.708827 0.078436
v 0.849104 0.749795 0.078436
v 0.856138 0.732825 0.078436
v -0.887824 0.715855 0.078436
v -0.928785 0.732825 0.078436
v -0.921750 0.715855 0.078436
v -0.904756 0.708827 0.078436
v -0.904756 0.756823 0.078436
v -0.921750 0.749795 0.078436
v -0.887824 0.749795 0.078436
v -0.880789 0.732825 0.078436
v -1.139069 0.166453 0.017430
v -1.207545 0.419802 0.017430
v -1.207545 0.211168 0.017430
v -1.139069 0.464517 0.017430
v -1.207545 0.266073 0.072211
v -1.207545 0.364897 -0.136330
v -1.207545 0.266073 -0.136330
v -1.207545 0.364897 0.072211
v -1.207545 0.211168 0.017430
v -1.207545 0.419802 0.017430
v -1.207545 0.211168 -0.081549
v -1.207545 0.419802 -0.081549
v -1.079059 0.512014 -0.141932
v -1.072024 0.528984 0.078436
v -1.072024 0.528984 -0.141932
v -1.079059 0.512014 0.078436
v -1.072024 0.495051 -0.141932
v -1.072024 0.495051 0.078436
v 0.808142 0.732825 -0.141932
v 0.815177 0.749795 0.078436
v 0.815177 0.749795 -0.141932
v 0.808142 0.732825 0.078436
v 0.815177 0.715855 -0.141932
v 0.815177 0.715855 0.078436
v 0.123444 0.512014 -0.141932
v 0.130416 0.528984 0.078436
v 0.130416 0.528984 -0.141932
v 0.123444 0.512014 0.078436
v 0.130416 0.495051 -0.141932
v 0.130416 0.495051 0.078436
v -0.928785 0.732825 -0.141932
v -0.921750 0.749795 0.078436
v -0.921750 0.749795 -0.141932
v -0.928785 0.732825 0.078436
v -0.921750 0.715855 -0.141932
v -0.921750 0.715855 0.078436
v -0.745020 0.512014 -0.141932
v -0.738048 0.528984 0.078436
v -0.738048 0.528984 -0.141932
v -0.745020 0.512014 0.078436
v -0.738048 0.495051 -0.141932
v -0.738048 0.495051 0.078436
v 0.674552 0.512014 -0.141932
v 0.681586 0.528984 0.078436
v 0.681586 0.528984 -0.141932
v 0.674552 0.512014 0.078436
v 0.681586 0.495051 -0.141932
v 0.681586 0.495051 0.078436
v -1.207545 0.211168 -0.081549
v -1.139069 0.166453 -0.081549
v -1.207545 0.211168 0.017430
v -1.139069 0.166453 0.017430
v -1.055092 0.488023 0.078436
v -1.038098 0.495051 -0.141932
v -1.038098 0.495051 0.078436
v -1.055092 0.488023 -0.141932
v -1.072024 0.495051 0.078436
v -1.072024 0.495051 -0.141932
v -1.139069 0.266073 -0.181150
v -1.207545 0.266073 0.072211
v -1.207545 0.266073 -0.136330
v -1.139069 0.266073 0.117032
v 0.832171 0.708827 -0.141932
v 0.815177 0.715855 0.078436
v 0.815177 0.715855 -0.141932
v 0.832171 0.708827 0.078436
v 0.849104 0.715855 -0.141932
v 0.849104 0.715855 0.078436
v 0.147410 0.488023 -0.141932
v 0.130416 0.495051 0.078436
v 0.130416 0.495051 -0.141932
v 0.147410 0.488023 0.078436
v 0.164405 0.495051 -0.141932
v 0.164405 0.495051 0.078436
v -0.904756 0.708827 -0.141932
v -0.921750 0.715855 0.078436
v -0.921750 0.715855 -0.141932
v -0.904756 0.708827 0.078436
v -0.887824 0.715855 -0.141932
v -0.887824 0.715855 0.078436
v -0.721053 0.488023 -0.141932
v -0.738048 0.495051 0.078436
v -0.738048 0.495051 -0.141932
v -0.721053 0.488023 0.078436
v -0.704059 0.495051 -0.141932
v -0.704059 0.495051 0.078436
v 0.698581 0.488023 0.078436
v 0.715513 0.495051 -0.141932
v 0.715513 0.495051 0.078436
v 0.698581 0.488023 -0.141932
v 0.681586 0.495051 0.078436
v 0.681586 0.495051 -0.141932
v -1.207545 0.364897 -0.136330
v -1.139069 0.364897 -0.181150
v -1.207545 0.266073 -0.136330
v -1.139069 0.266073 -0.181150
v 0.164405 0.528984 -0.141932
v 0.123444 0.512014 -0.141932
v 0.130416 0.528984 -0.141932
v 0.147410 0.536018 -0.141932
v 0.171439 0.512014 -0.141932
v 0.164405 0.495051 -0.141932
v 0.130416 0.495051 -0.141932
v 0.147410 0.488023 -0.141932
v 0.722547 0.512014 -0.141932
v 0.681586 0.528984 -0.141932
v 0.715513 0.528984 -0.141932
v 0.698581 0.536018 -0.141932
v 0.681586 0.495051 -0.141932
v 0.674552 0.512014 -0.141932
v 0.715513 0.495051 -0.141932
v 0.698581 0.488023 -0.141932
v -0.697024 0.512014 -0.141932
v -0.738048 0.528984 -0.141932
v -0.704059 0.528984 -0.141932
v -0.721053 0.536018 -0.141932
v -0.738048 0.495051 -0.141932
v -0.745020 0.512014 -0.141932
v -0.704059 0.495051 -0.141932
v -0.721053 0.488023 -0.141932
v -1.031063 0.512014 -0.141932
v -1.072024 0.528984 -0.141932
v -1.038098 0.528984 -0.141932
v -1.055092 0.536018 -0.141932
v -1.072024 0.495051 -0.141932
v -1.079059 0.512014 -0.141932
v -1.038098 0.495051 -0.141932
v -1.055092 0.488023 -0.141932
v 0.849104 0.715855 -0.141932
v 0.832171 0.756823 -0.141932
v 0.849104 0.749795 -0.141932
v 0.856138 0.732825 -0.141932
v 0.815177 0.715855 -0.141932
v 0.832171 0.708827 -0.141932
v 0.815177 0.749795 -0.141932
v 0.808142 0.732825 -0.141932
v -0.887824 0.715855 -0.141932
v -0.904756 0.756823 -0.141932
v -0.887824 0.749795 -0.141932
v -0.880789 0.732825 -0.141932
v -0.928785 0.732825 -0.141932
v -0.921750 0.749795 -0.141932
v -0.921750 0.715855 -0.141932
v -0.904756 0.708827 -0.141932
v -1.139069 0.464517 -0.081549
v -1.207545 0.211168 -0.081549
v -1.207545 0.419802 -0.081549
v -1.139069 0.166453 -0.081549
vt 61.9779 -16.9899 
vt 62.0221 -16.9865 
vt 61.9779 -16.9865 
vt 62.0221 -16.9899 
vt 61.9779 -16.9933 
vt 62.0221 -16.9933 
vt 61.9779 -16.9455 
vt 62.0221 -16.9421 
vt 61.9779 -16.9421 
vt 62.0221 -16.9455 
vt 61.9779 -16.949 
vt 62.0221 -16.949 
vt 61.9779 -16.9899 
vt 62.0221 -16.9865 
vt 61.9779 -16.9865 
vt 62.0221 -16.9899 
vt 61.9779 -16.9933 
vt 62.0221 -16.9933 
vt 61.9779 -16.9455 
vt 62.0221 -16.9421 
vt 61.9779 -16.9421 
vt 62.0221 -16.9455 
vt 61.9779 -16.949 
vt 62.0221 -16.949 
vt 61.9779 -16.9899 
vt 62.0221 -16.9865 
vt 61.9779 -16.9865 
vt 62.0221 -16.9899 
vt 61.9779 -16.9933 
vt 62.0221 -16.9933 
vt 61.9779 -16.9899 
vt 62.0221 -16.9865 
vt 61.9779 -16.9865 
vt 62.0221 -16.9899 
vt 61.9779 -16.9933 
vt 62.0221 -16.9933 
vt 62.0299 -17.0194 
vt 61.9701 -17.0194 
vt 62.0299 -17.0393 
vt 61.9701 -17.0393 
vt 61.9901 -16.9994 
vt 61.9901 -17.0593 
vt 62.0099 -16.9994 
vt 62.0099 -17.0593 
vt 62.1766 -17.0221 
vt 62.1732 -16.9779 
vt 62.1732 -17.0221 
vt 62.1766 -16.9779 
vt 62.18 -17.0221 
vt 62.18 -16.9779 
vt 62.1934 -17.0099 
vt 62.2072 -17.0099 
vt 62.1934 -16.9901 
vt 62.2072 -16.9901 
vt 61.801 -17.0221 
vt 61.7976 -16.9779 
vt 61.7976 -17.0221 
vt 61.7942 -16.9779 
vt 61.801 -16.9779 
vt 61.7942 -17.0221 
vt 61.9385 -17.0221 
vt 61.9351 -16.9779 
vt 61.9351 -17.0221 
vt 61.9317 -16.9779 
vt 61.9385 -16.9779 
vt 61.9317 -17.0221 
vt 62.1498 -17.0221 
vt 62.1464 -16.9779 
vt 62.1464 -17.0221 
vt 62.143 -16.9779 
vt 62.1498 -16.9779 
vt 62.143 -17.0221 
vt 62.1129 -17.0221 
vt 62.1095 -16.9779 
vt 62.1095 -17.0221 
vt 62.1061 -16.9779 
vt 62.1129 -16.9779 
vt 62.1061 -17.0221 
vt 62.2072 -17.0209 
vt 62.1934 -16.9701 
vt 62.1934 -17.0299 
vt 62.2072 -16.9791 
vt 61.8245 -17.0221 
vt 61.821 -16.9779 
vt 61.821 -17.0221 
vt 61.8245 -16.9779 
vt 61.8279 -17.0221 
vt 61.8279 -16.9779 
vt 61.8066 -17.0393 
vt 61.7928 -17.0194 
vt 61.7928 -17.0393 
vt 61.8066 -17.0194 
vt 62.0683 -16.9933 
vt 62.0601 -16.9899 
vt 62.0615 -16.9933 
vt 62.0649 -16.9947 
vt 62.0697 -16.9899 
vt 62.0683 -16.9865 
vt 62.0615 -16.9865 
vt 62.0649 -16.9851 
vt 62.1721 -16.9933 
vt 62.1721 -16.9865 
vt 62.1707 -16.9899 
vt 62.179 -16.9865 
vt 62.1755 -16.9851 
vt 62.1804 -16.9899 
vt 62.179 -16.9933 
vt 62.1755 -16.9947 
vt 61.8871 -16.9933 
vt 61.8871 -16.9865 
vt 61.8857 -16.9899 
vt 61.8939 -16.9865 
vt 61.8905 -16.9851 
vt 61.8953 -16.9899 
vt 61.8939 -16.9933 
vt 61.8905 -16.9947 
vt 61.82 -16.9933 
vt 61.82 -16.9865 
vt 61.8186 -16.9899 
vt 61.8268 -16.9865 
vt 61.8234 -16.9851 
vt 61.8282 -16.9899 
vt 61.8268 -16.9933 
vt 61.8234 -16.9947 
vt 62.199 -16.949 
vt 62.199 -16.9421 
vt 62.1976 -16.9455 
vt 62.2024 -16.9407 
vt 62.2058 -16.949 
vt 62.2024 -16.9504 
vt 62.2058 -16.9421 
vt 62.2072 -16.9455 
vt 61.857 -16.949 
vt 61.8488 -16.9455 
vt 61.8502 -16.949 
vt 61.8536 -16.9504 
vt 61.8536 -16.9407 
vt 61.8502 -16.9421 
vt 61.857 -16.9421 
vt 61.8584 -16.9455 
vt 61.8066 -17.0593 
vt 61.7928 -17.0084 
vt 61.7928 -17.0503 
vt 61.8066 -16.9994 
vt 62.0209 -17.0393 
vt 61.9791 -17.0194 
vt 61.9791 -17.0393 
vt 62.0209 -17.0194 
vt 62.0099 -17.0503 
vt 62.0099 -17.0084 
vt 61.9901 -17.0503 
vt 61.9901 -17.0084 
vt 61.9779 -16.9899 
vt 62.0221 -16.9865 
vt 61.9779 -16.9865 
vt 62.0221 -16.9899 
vt 61.9779 -16.9933 
vt 62.0221 -16.9933 
vt 61.9779 -16.9455 
vt 62.0221 -16.9421 
vt 61.9779 -16.9421 
vt 62.0221 -16.9455 
vt 61.9779 -16.949 
vt 62.0221 -16.949 
vt 61.9779 -16.9899 
vt 62.0221 -16.9865 
vt 61.9779 -16.9865 
vt 62.0221 -16.9899 
vt 61.9779 -16.9933 
vt 62.0221 -16.9933 
vt 61.9779 -16.9455 
vt 62.0221 -16.9421 
vt 61.9779 -16.9421 
vt 62.0221 -16.9455 
vt 61.9779 -16.949 
vt 62.0221 -16.949 
vt 61.9779 -16.9899 
vt 62.0221 -16.9865 
vt 61.9779 -16.9865 
vt 62.0221 -16.9899 
vt 61.9779 -16.9933 
vt 62.0221 -16.9933 
vt 61.9779 -16.9899 
vt 62.0221 -16.9865 
vt 61.9779 -16.9865 
vt 62.0221 -16.9899 
vt 61.9779 -16.9933 
vt 62.0221 -16.9933 
vt 61.7928 -17.0099 
vt 61.8066 -17.0099 
vt 61.7928 -16.9901 
vt 61.8066 -16.9901 
vt 61.8234 -16.9779 
vt 61.8268 -17.0221 
vt 61.8268 -16.9779 
vt 61.8234 -17.0221 
vt 61.82 -16.9779 
vt 61.82 -17.0221 
vt 61.8066 -17.0299 
vt 61.7928 -16.9791 
vt 61.7928 -17.0209 
vt 61.8066 -16.9701 
vt 62.2024 -17.0221 
vt 62.199 -16.9779 
vt 62.199 -17.0221 
vt 62.2024 -16.9779 
vt 62.2058 -17.0221 
vt 62.2058 -16.9779 
vt 62.0649 -17.0221 
vt 62.0615 -16.9779 
vt 62.0615 -17.0221 
vt 62.0649 -16.9779 
vt 62.0683 -17.0221 
vt 62.0683 -16.9779 
vt 61.8536 -17.0221 
vt 61.8502 -16.9779 
vt 61.8502 -17.0221 
vt 61.8536 -16.9779 
vt 61.857 -17.0221 
vt 61.857 -16.9779 
vt 61.8905 -17.0221 
vt 61.8871 -16.9779 
vt 61.8871 -17.0221 
vt 61.8905 -16.9779 
vt 61.8939 -17.0221 
vt 61.8939 -16.9779 
vt 62.1755 -16.9779 
vt 62.179 -17.0221 
vt 62.179 -16.9779 
vt 62.1755 -17.0221 
vt 62.1721 -16.9779 
vt 62.1721 -17.0221 
vt 62.2072 -17.0194 
vt 62.1934 -17.0194 
vt 62.2072 -17.0393 
vt 62.1934 -17.0393 
vt 61.9317 -16.9865 
vt 61.9399 -16.9899 
vt 61.9385 -16.9865 
vt 61.9351 -16.9851 
vt 61.9303 -16.9899 
vt 61.9317 -16.9933 
vt 61.9385 -16.9933 
vt 61.9351 -16.9947 
vt 61.8196 -16.9899 
vt 61.8279 -16.9865 
vt 61.821 -16.9865 
vt 61.8245 -16.9851 
vt 61.8279 -16.9933 
vt 61.8293 -16.9899 
vt 61.821 -16.9933 
vt 61.8245 -16.9947 
vt 62.1047 -16.9899 
vt 62.1129 -16.9865 
vt 62.1061 -16.9865 
vt 62.1095 -16.9851 
vt 62.1129 -16.9933 
vt 62.1143 -16.9899 
vt 62.1061 -16.9933 
vt 62.1095 -16.9947 
vt 62.1718 -16.9899 
vt 62.18 -16.9865 
vt 62.1732 -16.9865 
vt 62.1766 -16.9851 
vt 62.18 -16.9933 
vt 62.1814 -16.9899 
vt 62.1732 -16.9933 
vt 62.1766 -16.9947 
vt 61.7942 -16.949 
vt 61.7976 -16.9407 
vt 61.7942 -16.9421 
vt 61.7928 -16.9455 
vt 61.801 -16.949 
vt 61.7976 -16.9504 
vt 61.801 -16.9421 
vt 61.8024 -16.9455 
vt 62.143 -16.949 
vt 62.1464 -16.9407 
vt 62.143 -16.9421 
vt 62.1416 -16.9455 
vt 62.1512 -16.9455 
vt 62.1498 -16.9421 
vt 62.1498 -16.949 
vt 62.1464 -16.9504 
vt 62.1934 -16.9994 
vt 62.2072 -17.0503 
vt 62.2072 -17.0084 
vt 62.1934 -17.0593 
vn 1.0000 0.0000 -0.0000
vn 0.7087 0.7087 -0.0000
vn 0.7087 0.7087 -0.0000
vn 1.0000 0.0000 -0.0000
vn 0.7087 -0.7087 -0.0000
vn 0.7087 -0.7087 -0.0000
vn 1.0000 0.0000 -0.0000
vn 0.7087 0.7087 -0.0000
vn 0.7087 0.7087 -0.0000
vn 1.0000 0.0000 -0.0000
vn 0.7087 -0.7087 -0.0000
vn 0.7087 -0.7087 -0.0000
vn 1.0000 0.0000 -0.0000
vn 0.7087 0.7087 -0.0000
vn 0.7087 0.7087 -0.0000
vn 1.0000 0.0000 -0.0000
vn 0.7087 -0.7087 -0.0000
vn 0.7087 -0.7087 -0.0000
vn 1.0000 0.0000 -0.0000
vn 0.7087 0.7087 -0.0000
vn 0.7087 0.7087 -0.0000
vn 1.0000 0.0000 -0.0000
vn 0.7087 -0.7087 -0.0000
vn 0.7087 -0.7087 -0.0000
vn 1.0000 0.0000 -0.0000
vn 0.7087 0.7087 -0.0000
vn 0.7087 0.7087 -0.0000
vn 1.0000 0.0000 -0.0000
vn 0.7087 -0.7087 -0.0000
vn 0.7087 -0.7087 -0.0000
vn 1.0000 0.0000 -0.0000
vn 0.7087 0.7087 -0.0000
vn 0.7087 0.7087 -0.0000
vn 1.0000 0.0000 -0.0000
vn 0.7087 -0.7087 -0.0000
vn 0.7087 -0.7087 -0.0000
vn 1.0000 0.0000 -0.0000
vn 1.0000 0.0000 -0.0000
vn 1.0000 0.0000 -0.0000
vn 1.0000 0.0000 -0.0000
vn 1.0000 0.0000 -0.0000
vn 1.0000 0.0000 -0.0000
vn 1.0000 0.0000 -0.0000
vn 1.0000 0.0000 -0.0000
vn 0.0000 1.0000 -0.0000
vn 0.7087 0.7087 -0.0000
vn 0.7087 0.7087 -0.0000
vn 0.0000 1.0000 -0.0000
vn -0.7087 0.7087 -0.0000
vn -0.7087 0.7087 -0.0000
vn -0.5433 0.8346 -0.0000
vn -0.5433 0.8346 -0.0000
vn -0.5433 0.8346 -0.0000
vn -0.5433 0.8346 -0.0000
vn -0.7087 0.7087 -0.0000
vn 0.0000 1.0000 -0.0000
vn 0.0000 1.0000 -0.0000
vn 0.7087 0.7087 -0.0000
vn -0.7087 0.7087 -0.0000
vn 0.7087 0.7087 -0.0000
vn -0.7087 0.7087 -0.0000
vn 0.0000 1.0000 -0.0000
vn 0.0000 1.0000 -0.0000
vn 0.7087 0.7087 -0.0000
vn -0.7087 0.7087 -0.0000
vn 0.7087 0.7087 -0.0000
vn -0.7087 0.7087 -0.0000
vn 0.0000 1.0000 -0.0000
vn 0.0000 1.0000 -0.0000
vn 0.7087 0.7087 -0.0000
vn -0.7087 0.7087 -0.0000
vn 0.7087 0.7087 -0.0000
vn -0.7087 0.7087 -0.0000
vn 0.0000 1.0000 -0.0000
vn 0.0000 1.0000 -0.0000
vn 0.7087 0.7087 -0.0000
vn -0.7087 0.7087 -0.0000
vn 0.7087 0.7087 -0.0000
vn 0.0000 1.0000 -0.0000
vn 0.0000 1.0000 -0.0000
vn 0.0000 1.0000 -0.0000
vn 0.0000 1.0000 -0.0000
vn 0.0000 1.0000 -0.0000
vn 0.7087 0.7087 -0.0000
vn 0.7087 0.7087 -0.0000
vn 0.0000 1.0000 -0.0000
vn -0.7087 0.7087 -0.0000
vn -0.7087 0.7087 -0.0000
vn -0.5433 0.0000 0.8346
vn -0.5433 0.0000 0.8346
vn -0.5433 0.0000 0.8346
vn -0.5433 0.0000 0.8346
vn 0.0000 0.0000 1.0000
vn 0.0000 0.0000 1.0000
vn 0.0000 0.0000 1.0000
vn 0.0000 0.0000 1.0000
vn 0.0000 0.0000 1.0000
vn 0.0000 0.0000 1.0000
vn 0.0000 0.0000 1.0000
vn 0.0000 0.0000 1.0000
vn 0.0000 0.0000 1.0000
vn 0.0000 0.0000 1.0000
vn 0.0000 0.0000 1.0000
vn 0.0000 0.0000 1.0000
vn 0.0000 0.0000 1.0000
vn 0.0000 0.0000 1.0000
vn 0.0000 0.0000 1.0000
vn 0.0000 0.0000 1.0000
vn 0.0000 0.0000 1.0000
vn 0.0000 0.0000 1.0000
vn 0.0000 0.0000 1.0000
vn 0.0000 0.0000 1.0000
vn 0.0000 0.0000 1.0000
vn 0.0000 0.0000 1.0000
vn 0.0000 0.0000 1.0000
vn 0.0000 0.0000 1.0000
vn 0.0000 0.0000 1.0000
vn 0.0000 0.0000 1.0000
vn 0.0000 0.0000 1.0000
vn 0.0000 0.0000 1.0000
vn 0.0000 0.0000 1.0000
vn 0.0000 0.0000 1.0000
vn 0.0000 0.0000 1.0000
vn 0.0000 0.0000 1.0000
vn 0.0000 0.0000 1.0000
vn 0.0000 0.0000 1.0000
vn 0.0000 0.0000 1.0000
vn 0.0000 0.0000 1.0000
vn 0.0000 0.0000 1.0000
vn 0.0000 0.0000 1.0000
vn 0.0000 0.0000 1.0000
vn 0.0000 0.0000 1.0000
vn 0.0000 0.0000 1.0000
vn 0.0000 0.0000 1.0000
vn 0.0000 0.0000 1.0000
vn 0.0000 0.0000 1.0000
vn 0.0000 0.0000 1.0000
vn 0.0000 0.0000 1.0000
vn 0.0000 0.0000 1.0000
vn 0.0000 0.0000 1.0000
vn 0.0000 0.0000 1.0000
vn 0.0000 0.0000 1.0000
vn 0.0000 0.0000 1.0000
vn 0.0000 0.0000 1.0000
vn -1.0000 0.0000 -0.0000
vn -1.0000 0.0000 -0.0000
vn -1.0000 0.0000 -0.0000
vn -1.0000 0.0000 -0.0000
vn -1.0000 0.0000 -0.0000
vn -1.0000 0.0000 -0.0000
vn -1.0000 0.0000 -0.0000
vn -1.0000 0.0000 -0.0000
vn -1.0000 0.0000 -0.0000
vn -0.7087 0.7087 -0.0000
vn -0.7087 0.7087 -0.0000
vn -1.0000 0.0000 -0.0000
vn -0.7087 -0.7087 -0.0000
vn -0.7087 -0.7087 -0.0000
vn -1.0000 0.0000 -0.0000
vn -0.7087 0.7087 -0.0000
vn -0.7087 0.7087 -0.0000
vn -1.0000 0.0000 -0.0000
vn -0.7087 -0.7087 -0.0000
vn -0.7087 -0.7087 -0.0000
vn -1.0000 0.0000 -0.0000
vn -0.7087 0.7087 -0.0000
vn -0.7087 0.7087 -0.0000
vn -1.0000 0.0000 -0.0000
vn -0.7087 -0.7087 -0.0000
vn -0.7087 -0.7087 -0.0000
vn -1.0000 0.0000 -0.0000
vn -0.7087 0.7087 -0.0000
vn -0.7087 0.7087 -0.0000
vn -1.0000 0.0000 -0.0000
vn -0.7087 -0.7087 -0.0000
vn -0.7087 -0.7087 -0.0000
vn -1.0000 0.0000 -0.0000
vn -0.7087 0.7087 -0.0000
vn -0.7087 0.7087 -0.0000
vn -1.0000 0.0000 -0.0000
vn -0.7087 -0.7087 -0.0000
vn -0.7087 -0.7087 -0.0000
vn -1.0000 0.0000 -0.0000
vn -0.7087 0.7087 -0.0000
vn -0.7087 0.7087 -0.0000
vn -1.0000 0.0000 -0.0000
vn -0.7087 -0.7087 -0.0000
vn -0.7087 -0.7087 -0.0000
vn -0.5433 -0.8346 -0.0000
vn -0.5433 -0.8346 -0.0000
vn -0.5433 -0.8346 -0.0000
vn -0.5433 -0.8346 -0.0000
vn 0.0000 -1.0000 -0.0000
vn 0.7087 -0.7087 -0.0000
vn 0.7087 -0.7087 -0.0000
vn 0.0000 -1.0000 -0.0000
vn -0.7087 -0.7087 -0.0000
vn -0.7087 -0.7087 -0.0000
vn 0.0000 -1.0000 -0.0000
vn 0.0000 -1.0000 -0.0000
vn 0.0000 -1.0000 -0.0000
vn 0.0000 -1.0000 -0.0000
vn 0.0000 -1.0000 -0.0000
vn -0.7087 -0.7087 -0.0000
vn -0.7087 -0.7087 -0.0000
vn 0.0000 -1.0000 -0.0000
vn 0.7087 -0.7087 -0.0000
vn 0.7087 -0.7087 -0.0000
vn 0.0000 -1.0000 -0.0000
vn -0.7087 -0.7087 -0.0000
vn -0.7087 -0.7087 -0.0000
vn 0.0000 -1.0000 -0.0000
vn 0.7087 -0.7087 -0.0000
vn 0.7087 -0.7087 -0.0000
vn 0.0000 -1.0000 -0.0000
vn -0.7087 -0.7087 -0.0000
vn -0.7087 -0.7087 -0.0000
vn 0.0000 -1.0000 -0.0000
vn 0.7087 -0.7087 -0.0000
vn 0.7087 -0.7087 -0.0000
vn 0.0000 -1.0000 -0.0000
vn -0.7087 -0.7087 -0.0000
vn -0.7087 -0.7087 -0.0000
vn 0.0000 -1.0000 -0.0000
vn 0.7087 -0.7087 -0.0000
vn 0.7087 -0.7087 -0.0000
vn 0.0000 -1.0000 -0.0000
vn 0.7087 -0.7087 -0.0000
vn 0.7087 -0.7087 -0.0000
vn 0.0000 -1.0000 -0.0000
vn -0.7087 -0.7087 -0.0000
vn -0.7087 -0.7087 -0.0000
vn -0.5433 0.0000 -0.8346
vn -0.5433 0.0000 -0.8346
vn -0.5433 0.0000 -0.8346
vn -0.5433 0.0000 -0.8346
vn 0.0000 0.0000 -1.0000
vn 0.0000 0.0000 -1.0000
vn 0.0000 0.0000 -1.0000
vn 0.0000 0.0000 -1.0000
vn 0.0000 0.0000 -1.0000
vn 0.0000 0.0000 -1.0000
vn 0.0000 0.0000 -1.0000
vn 0.0000 0.0000 -1.0000
vn 0.0000 0.0000 -1.0000
vn 0.0000 0.0000 -1.0000
vn 0.0000 0.0000 -1.0000
vn 0.0000 0.0000 -1.0000
vn 0.0000 0.0000 -1.0000
vn 0.0000 0.0000 -1.0000
vn 0.0000 0.0000 -1.0000
vn 0.0000 0.0000 -1.0000
vn 0.0000 0.0000 -1.0000
vn 0.0000 0.0000 -1.0000
vn 0.0000 0.0000 -1.0000
vn 0.0000 0.0000 -1.0000
vn 0.0000 0.0000 -1.0000
vn 0.0000 0.0000 -1.0000
vn 0.0000 0.0000 -1.0000
vn 0.0000 0.0000 -1.0000
vn 0.0000 0.0000 -1.0000
vn 0.0000 0.0000 -1.0000
vn 0.0000 0.0000 -1.0000
vn 0.0000 0.0000 -1.0000
vn 0.0000 0.0000 -1.0000
vn 0.0000 0.0000 -1.0000
vn 0.0000 0.0000 -1.0000
vn 0.0000 0.0000 -1.0000
vn 0.0000 0.0000 -1.0000
vn 0.0000 0.0000 -1.0000
vn 0.0000 0.0000 -1.0000
vn 0.0000 0.0000 -1.0000
vn 0.0000 0.0000 -1.0000
vn 0.0000 0.0000 -1.0000
vn 0.0000 0.0000 -1.0000
vn 0.0000 0.0000 -1.0000
vn 0.0000 0.0000 -1.0000
vn 0.0000 0.0000 -1.0000
vn 0.0000 0.0000 -1.0000
vn 0.0000 0.0000 -1.0000
vn 0.0000 0.0000 -1.0000
vn 0.0000 0.0000 -1.0000
vn 0.0000 0.0000 -1.0000
vn 0.0000 0.0000 -1.0000
vn 0.0000 0.0000 -1.0000
vn 0.0000 0.0000 -1.0000
vn 0.0000 0.0000 -1.0000
vn 0.0000 0.0000 -1.0000
usemtl Meshpart1Mtl
f 1/1/1 2/2/2 3/3/3
f 2/2/2 1/1/1 4/4/4
f 5/5/5 4/4/4 1/1/1
f 4/4/4 5/5/5 6/6/6
f 7/7/7 8/8/8 9/9/9
f 8/8/8 7/7/7 10/10/10
f 11/11/11 10/10/10 7/7/7
f 10/10/10 11/11/11 12/12/12
f 13/13/13 14/14/14 15/15/15
f 14/14/14 13/13/13 16/16/16
f 17/17/17 16/16/16 13/13/13
f 16/16/16 17/17/17 18/18/18
f 19/19/19 20/20/20 21/21/21
f 20/20/20 19/19/19 22/22/22
f 23/23/23 22/22/22 19/19/19
f 22/22/22 23/23/23 24/24/24
f 25/25/25 26/26/26 27/27/27
f 26/26/26 25/25/25 28/28/28
f 29/29/29 28/28/28 25/25/25
f 28/28/28 29/29/29 30/30/30
f 31/31/31 32/32/32 33/33/33
f 32/32/32 31/31/31 34/34/34
f 35/35/35 34/34/34 31/31/31
f 34/34/34 35/35/35 36/36/36
f 37/37/37 38/38/38 39/39/39
f 39/39/39 38/38/38 40/40/40
f 41/41/41 42/42/42 43/43/43
f 44/44/44 43/43/43 42/42/42
f 45/45/45 46/46/46 47/47/47
f 46/46/46 45/45/45 48/48/48
f 49/49/49 48/48/48 45/45/45
f 48/48/48 49/49/49 50/50/50
f 51/51/51 52/52/52 53/53/53
f 52/52/52 54/54/54 53/53/53
f 55/55/55 56/56/56 57/57/57
f 58/58/58 57/57/57 56/56/56
f 56/56/56 55/55/55 59/59/59
f 57/57/57 58/58/58 60/60/60
f 61/61/61 62/62/62 63/63/63
f 64/64/64 63/63/63 62/62/62
f 62/62/62 61/61/61 65/65/65
f 63/63/63 64/64/64 66/66/66
f 67/67/67 68/68/68 69/69/69
f 70/70/70 69/69/69 68/68/68
f 68/68/68 67/67/67 71/71/71
f 69/69/69 70/70/70 72/72/72
f 73/73/73 74/74/74 75/75/75
f 76/76/76 75/75/75 74/74/74
f 74/74/74 73/73/73 77/77/77
f 75/75/75 76/76/76 78/78/78
f 79/79/79 80/80/80 81/81/81
f 80/80/80 79/79/79 82/82/82
f 83/83/83 84/84/84 85/85/85
f 84/84/84 83/83/83 86/86/86
f 87/87/87 86/86/86 83/83/83
f 86/86/86 87/87/87 88/88/88
f 89/89/89 90/90/90 91/91/91
f 90/90/90 89/89/89 92/92/92
f 93/93/93 94/94/94 95/95/95
f 93/93/93 95/95/95 96/96/96
f 97/97/97 94/94/94 93/93/93
f 98/98/98 94/94/94 97/97/97
f 94/94/94 98/98/98 99/99/99
f 99/99/99 98/98/98 100/100/100
f 101/101/101 102/102/102 103/103/103
f 102/102/102 104/104/104 105/105/105
f 104/104/104 102/102/102 106/106/106
f 101/101/101 106/106/106 102/102/102
f 106/106/106 101/101/101 107/107/107
f 107/107/107 101/101/101 108/108/108
f 109/109/109 110/110/110 111/111/111
f 110/110/110 112/112/112 113/113/113
f 112/112/112 110/110/110 114/114/114
f 109/109/109 114/114/114 110/110/110
f 114/114/114 109/109/109 115/115/115
f 115/115/115 109/109/109 116/116/116
f 117/117/117 118/118/118 119/119/119
f 118/118/118 120/120/120 121/121/121
f 120/120/120 118/118/118 122/122/122
f 117/117/117 122/122/122 118/118/118
f 122/122/122 117/117/117 123/123/123
f 123/123/123 117/117/117 124/124/124
f 125/125/125 126/126/126 127/127/127
f 125/125/125 128/128/128 126/126/126
f 128/128/128 125/125/125 129/129/129
f 129/129/129 125/125/125 130/130/130
f 129/129/129 131/131/131 128/128/128
f 131/131/131 129/129/129 132/132/132
f 133/133/133 134/134/134 135/135/135
f 133/133/133 135/135/135 136/136/136
f 137/137/137 134/134/134 133/133/133
f 134/134/134 137/137/137 138/138/138
f 133/133/133 139/139/139 137/137/137
f 139/139/139 133/133/133 140/140/140
f 141/141/141 142/142/142 143/143/143
f 142/142/142 141/141/141 144/144/144
f 145/145/145 146/146/146 147/147/147
f 146/146/146 145/145/145 148/148/148
f 149/149/149 150/150/150 151/151/151
f 152/152/152 151/151/151 150/150/150
f 153/153/153 154/154/154 155/155/155
f 154/154/154 153/153/153 156/156/156
f 157/157/157 156/156/156 153/153/153
f 156/156/156 157/157/157 158/158/158
f 159/159/159 160/160/160 161/161/161
f 160/160/160 159/159/159 162/162/162
f 163/163/163 162/162/162 159/159/159
f 162/162/162 163/163/163 164/164/164
f 165/165/165 166/166/166 167/167/167
f 166/166/166 165/165/165 168/168/168
f 169/169/169 168/168/168 165/165/165
f 168/168/168 169/169/169 170/170/170
f 171/171/171 172/172/172 173/173/173
f 172/172/172 171/171/171 174/174/174
f 175/175/175 174/174/174 171/171/171
f 174/174/174 175/175/175 176/176/176
f 177/177/177 178/178/178 179/179/179
f 178/178/178 177/177/177 180/180/180
f 181/181/181 180/180/180 177/177/177
f 180/180/180 181/181/181 182/182/182
f 183/183/183 184/184/184 185/185/185
f 184/184/184 183/183/183 186/186/186
f 187/187/187 186/186/186 183/183/183
f 186/186/186 187/187/187 188/188/188
f 189/189/189 190/190/190 191/191/191
f 190/190/190 192/192/192 191/191/191
f 193/193/193 194/194/194 195/195/195
f 194/194/194 193/193/193 196/196/196
f 197/197/197 196/196/196 193/193/193
f 196/196/196 197/197/197 198/198/198
f 199/199/199 200/200/200 201/201/201
f 200/200/200 199/199/199 202/202/202
f 203/203/203 204/204/204 205/205/205
f 206/206/206 207/207/207 208/208/208
f 204/204/204 203/203/203 206/206/206
f 207/207/207 206/206/206 203/203/203
f 209/209/209 210/210/210 211/211/211
f 212/212/212 213/213/213 214/214/214
f 210/210/210 209/209/209 212/212/212
f 213/213/213 212/212/212 209/209/209
f 215/215/215 216/216/216 217/217/217
f 218/218/218 219/219/219 220/220/220
f 216/216/216 215/215/215 218/218/218
f 219/219/219 218/218/218 215/215/215
f 221/221/221 222/222/222 223/223/223
f 224/224/224 225/225/225 226/226/226
f 222/222/222 221/221/221 224/224/224
f 225/225/225 224/224/224 221/221/221
f 227/227/227 228/228/228 229/229/229
f 228/228/228 227/227/227 230/230/230
f 231/231/231 230/230/230 227/227/227
f 230/230/230 231/231/231 232/232/232
f 233/233/233 234/234/234 235/235/235
f 234/234/234 236/236/236 235/235/235
f 237/237/237 238/238/238 239/239/239
f 237/237/237 239/239/239 240/240/240
f 238/238/238 237/237/237 241/241/241
f 242/242/242 238/238/238 241/241/241
f 238/238/238 242/242/242 243/243/243
f 243/243/243 242/242/242 244/244/244
f 245/245/245 246/246/246 247/247/247
f 247/247/247 246/246/246 248/248/248
f 245/245/245 249/249/249 246/246/246
f 246/246/246 249/249/249 250/250/250
f 249/249/249 245/245/245 251/251/251
f 249/249/249 251/251/251 252/252/252
f 253/253/253 254/254/254 255/255/255
f 255/255/255 254/254/254 256/256/256
f 253/253/253 257/257/257 254/254/254
f 254/254/254 257/257/257 258/258/258
f 257/257/257 253/253/253 259/259/259
f 257/257/257 259/259/259 260/260/260
f 261/261/261 262/262/262 263/263/263
f 263/263/263 262/262/262 264/264/264
f 261/261/261 265/265/265 262/262/262
f 262/262/262 265/265/265 266/266/266
f 265/265/265 261/261/261 267/267/267
f 265/265/265 267/267/267 268/268/268
f 269/269/269 270/270/270 271/271/271
f 269/269/269 271/271/271 272/272/272
f 273/273/273 270/270/270 269/269/269
f 273/273/273 269/269/269 274/274/274
f 270/270/270 273/273/273 275/275/275
f 275/275/275 273/273/273 276/276/276
f 277/277/277 278/278/278 279/279/279
f 277/277/277 279/279/279 280/280/280
f 277/277/277 281/281/281 278/278/278
f 278/278/278 281/281/281 282/282/282
f 281/281/281 277/277/277 283/283/283
f 283/283/283 277/277/277 284/284/284
f 285/285/285 286/286/286 287/287/287
f 286/286/286 285/285/285 288/288/288
